<svg xmlns="http://www.w3.org/2000/svg" viewBox="0 0 400 400" preserveAspectRatio="xMidYMid slice" role="img" aria-label="Campus buildings">
  <defs>
    <linearGradient id="sky" x1="0" y1="0" x2="1" y2="1">
      <stop offset="0%" stop-color="#312e81"/>
      <stop offset="55%" stop-color="#1e1b4b"/>
      <stop offset="100%" stop-color="#0b0f19"/>
    </linearGradient>
    <linearGradient id="glass" x1="0" y1="0" x2="0" y2="1">
      <stop offset="0%" stop-color="#818cf8"/>
      <stop offset="100%" stop-color="#4338ca"/>
    </linearGradient>
  </defs>
  <rect width="400" height="400" fill="url(#sky)"/>
  <circle cx="310" cy="78" r="36" fill="#fde68a" opacity="0.85"/>
  <rect x="48" y="168" width="118" height="170" rx="6" fill="#111827"/>
  <rect x="62" y="184" width="28" height="22" rx="2" fill="url(#glass)" opacity="0.85"/>
  <rect x="100" y="184" width="28" height="22" rx="2" fill="url(#glass)" opacity="0.55"/>
  <rect x="62" y="218" width="28" height="22" rx="2" fill="url(#glass)" opacity="0.7"/>
  <rect x="100" y="218" width="28" height="22" rx="2" fill="url(#glass)" opacity="0.4"/>
  <rect x="62" y="252" width="28" height="22" rx="2" fill="url(#glass)" opacity="0.8"/>
  <rect x="100" y="252" width="28" height="22" rx="2" fill="url(#glass)" opacity="0.5"/>
  <rect x="182" y="132" width="150" height="206" rx="8" fill="#1f2937"/>
  <rect x="198" y="152" width="36" height="26" rx="3" fill="#6366f1"/>
  <rect x="246" y="152" width="36" height="26" rx="3" fill="#8b5cf6"/>
  <rect x="198" y="192" width="36" height="26" rx="3" fill="#6366f1" opacity="0.7"/>
  <rect x="246" y="192" width="36" height="26" rx="3" fill="#8b5cf6" opacity="0.65"/>
  <rect x="198" y="232" width="36" height="26" rx="3" fill="#6366f1" opacity="0.85"/>
  <rect x="246" y="232" width="36" height="26" rx="3" fill="#a78bfa"/>
  <rect x="236" y="278" width="28" height="60" rx="3" fill="#0b0f19"/>
  <rect y="338" width="400" height="62" fill="#0b0f19"/>
  <rect x="0" y="332" width="400" height="8" fill="#6366f1" opacity="0.35"/>
</svg>
